# xmcd
#
# Track frame offsets: 
#        150
#        12296
#        21731
#        37187
#        49858
#        60093
#        70272
#        78895
#        94752
#        105369
#        124830
#        145504
#        167850
#        180426
#        192996
#
# Disc length: 2799 seconds
#
# Revision: 0
# Processed by: cddbd v1.5.2PL0 Copyright (c) Steve Scherf et al.
# Submitted via: ExactAudioCopyFreeDBPlugin 1.0
#
DISCID=c20aed0f
DTITLE=Hamburger James - Last Plane To Memphis
DYEAR=2008
DGENRE=Country
TTITLE0=Red Dress
TTITLE1=Doubletakes
TTITLE2=Money Sense
TTITLE3=Tough Guy
TTITLE4=Rumble Tonight
TTITLE5=Bang Bang
TTITLE6=That's Alright Mama
TTITLE7=12 Ounces At A Time
TTITLE8=Everybody Loves Me
TTITLE9=Are You The One?
TTITLE10=Wait For The Morning
TTITLE11=The Legend Of H J
TTITLE12=Little Sister
TTITLE13=Boppin' The Blues
TTITLE14=Nobody Waiting At The Door
EXTD=
EXTT0=
EXTT1=
EXTT2=
EXTT3=
EXTT4=
EXTT5=
EXTT6=
EXTT7=
EXTT8=
EXTT9=
EXTT10=
EXTT11=
EXTT12=
EXTT13=
EXTT14=
PLAYORDER=
